<svg width="25" height="25" viewBox="0 0 25 25" fill="none" xmlns="http://www.w3.org/2000/svg">
<path d="M12.5662 6.09032C9.16094 6.09032 6.41426 8.95208 6.41426 12.5C6.41426 16.0479 9.16094 18.9097 12.5662 18.9097C15.9714 18.9097 18.7181 16.0479 18.7181 12.5C18.7181 8.95208 15.9714 6.09032 12.5662 6.09032ZM12.5662 16.6671C10.3656 16.6671 8.56663 14.7983 8.56663 12.5C8.56663 10.2017 10.3603 8.33287 12.5662 8.33287C14.7721 8.33287 16.5657 10.2017 16.5657 12.5C16.5657 14.7983 14.7667 16.6671 12.5662 16.6671V16.6671ZM20.4047 5.82813C20.4047 6.65932 19.7622 7.32316 18.9698 7.32316C18.172 7.32316 17.5348 6.65374 17.5348 5.82813C17.5348 5.00251 18.1773 4.33309 18.9698 4.33309C19.7622 4.33309 20.4047 5.00251 20.4047 5.82813ZM24.4792 7.34548C24.3882 5.3428 23.9491 3.56884 22.541 2.10727C21.1382 0.64571 19.4356 0.188274 17.5134 0.0878612C15.5324 -0.0292871 9.59463 -0.0292871 7.61359 0.0878612C5.6968 0.182696 3.99418 0.640132 2.58604 2.1017C1.1779 3.56326 0.74421 5.33722 0.647835 7.3399C0.535398 9.40394 0.535398 15.5905 0.647835 17.6545C0.738856 19.6572 1.1779 21.4312 2.58604 22.8927C3.99418 24.3543 5.69145 24.8117 7.61359 24.9121C9.59463 25.0293 15.5324 25.0293 17.5134 24.9121C19.4356 24.8173 21.1382 24.3599 22.541 22.8927C23.9438 21.4312 24.3828 19.6572 24.4792 17.6545C24.5916 15.5905 24.5916 9.40952 24.4792 7.34548V7.34548ZM21.9199 19.8692C21.5023 20.9626 20.6938 21.8049 19.639 22.2456C18.0595 22.8983 14.3116 22.7477 12.5662 22.7477C10.8207 22.7477 7.06747 22.8927 5.49335 22.2456C4.44393 21.8105 3.63545 20.9681 3.21248 19.8692C2.58604 18.2235 2.7306 14.3186 2.7306 12.5C2.7306 10.6814 2.59139 6.77089 3.21248 5.13082C3.6301 4.03743 4.43858 3.19508 5.49335 2.75438C7.07282 2.1017 10.8207 2.25231 12.5662 2.25231C14.3116 2.25231 18.0649 2.10727 19.639 2.75438C20.6884 3.1895 21.4969 4.03185 21.9199 5.13082C22.5463 6.77647 22.4018 10.6814 22.4018 12.5C22.4018 14.3186 22.5463 18.2291 21.9199 19.8692Z" fill="#FF8AB7"/>
</svg>
