<svg width="153" height="37" viewBox="0 0 153 37" fill="none" xmlns="http://www.w3.org/2000/svg">
<path d="M2.127 5.578C1.989 5.877 1.736 6.59 2.127 6.728C2.311 6.728 2.748 6.337 2.978 6.107C4.151 5.463 5.945 5.877 7.256 6.061C5.577 7.004 4.473 10.017 3.76 11.719C3.162 11.719 2.472 11.65 1.943 11.512C1.322 11.42 1.184 11.167 1.069 11.857C0.862 13.053 1.667 13.651 2.932 13.973C2.196 16.066 1.437 18.55 1.391 20.436C1.276 24.346 5.232 24.001 5.347 23.012C5.278 22.529 3.691 23.012 4.404 20.114C4.841 18.665 5.623 16.48 6.589 14.272C8.912 14.18 11.557 13.927 13.029 14.134C13.627 14.18 13.627 14.387 13.834 13.72C14.639 11.167 11.35 11.374 7.624 11.558C8.061 10.569 9.924 7.004 10.154 6.222H10.223C13.236 6.429 16.525 6.337 18.733 3.991C19.216 3.508 20.297 1.553 19.63 1.277C19.354 1.277 18.503 2.289 17.721 2.68C13.88 4.589 4.473 0.678999 2.127 5.578ZM28.0679 12.915C27.8379 12.708 26.9639 13.237 25.9519 13.973C24.0659 15.33 22.5019 16.963 20.5699 17.998C20.5699 17.975 20.5929 17.952 20.5929 17.929C21.2139 16.089 22.2259 14.64 22.8239 13.007C22.8929 12.777 22.9389 12.57 22.9849 12.34C23.0539 11.19 21.5819 9.672 20.5239 10.592C20.1329 10.983 19.7419 11.673 19.5579 12.087C19.3739 11.926 19.1669 11.834 19.0749 11.788C15.4869 10.247 12.5889 16.112 13.0719 18.596C13.3249 19.746 14.2679 20.436 15.3259 20.505C16.1769 20.459 16.8899 20.183 17.5339 19.769C17.8789 20.689 18.6609 21.31 19.6499 21.195C21.0989 20.965 22.2949 19.907 23.2609 18.964C23.8819 18.389 28.7349 13.858 28.0679 12.915ZM15.5329 17.515C15.5329 17.515 15.5329 17.515 15.5099 17.515C15.4869 17.216 15.5329 16.894 15.6019 16.641C15.9699 15.054 17.1429 12.754 18.9139 12.593C19.2819 12.593 18.9599 13.26 18.4999 13.996C17.6719 15.33 16.6829 16.641 15.5329 17.515ZM41.5666 16.687C42.0496 15.744 42.3486 14.778 42.5326 13.881C42.9696 11.765 41.5896 10.546 39.6116 11.466C37.5876 12.363 36.1156 14.41 34.6896 15.997V15.974C34.7356 15.951 34.7356 15.905 34.7356 15.882C35.1726 14.939 35.4716 13.95 35.3796 13.007C35.1496 11.236 33.4246 10.73 31.9756 11.075C30.9636 11.328 30.1586 11.903 29.4916 12.57C29.7216 11.604 29.7906 10.822 29.4686 10.684C28.6636 10.362 27.0766 14.617 26.8466 15.169C26.3866 16.181 25.9266 17.216 25.5126 18.251C25.3746 18.55 25.2596 18.941 25.1676 19.286C24.8916 20.482 26.4096 21.747 27.1226 20.85C28.3646 19.286 29.6526 16.825 30.7106 15.491C31.1476 14.962 31.7226 14.226 32.3436 14.042C31.8146 15.744 30.3426 17.17 30.4806 19.033C30.5956 20.298 31.6766 20.781 32.6886 20.574C33.2176 20.413 33.6086 20.16 34.0226 19.815C35.3336 18.688 38.4846 14.479 39.2896 13.927C40.1406 13.398 38.4616 16.48 38.3926 16.618C37.9786 17.354 37.6106 18.205 37.6796 19.033C37.7946 20.298 38.8756 20.781 39.8876 20.574C40.4166 20.413 40.8076 20.16 41.2446 19.815C42.0266 19.125 47.6386 13.582 47.6386 12.846C46.9486 12.639 43.6826 15.1 41.5666 16.687ZM54.3778 12.984C53.5038 13.306 49.7548 16.319 48.2138 17.101C48.1678 17.124 48.1678 17.17 48.1218 17.17C48.3978 15.054 49.4328 13.49 49.9618 11.995C50.2148 11.098 48.3518 9.419 47.2478 11.811C46.5348 13.329 44.5568 17.193 45.4078 19.24C45.9598 20.413 46.9488 20.712 48.1218 20.413C50.4218 19.401 53.2508 15.675 54.2168 14.088C54.6768 13.352 54.5158 12.938 54.3778 12.984ZM49.1798 8.637C47.2018 9.028 49.0878 10.523 50.1688 9.994C50.8588 9.971 51.0428 8.476 49.1798 8.637ZM58.3426 8.223C58.4116 7.74 58.5956 5.578 58.1356 4.497C57.9976 4.198 57.5146 3.508 57.3076 4.129C55.9506 8.338 53.9726 12.271 52.6156 16.342C52.1096 17.814 51.9026 19.332 52.5236 20.758C52.8916 21.632 53.5356 22.575 54.2026 22.437C54.2716 22.391 54.2946 22.184 54.3406 21.954C55.0306 16.526 57.7216 12.869 58.3426 8.223ZM50.5122 31.292C50.4432 31.292 50.3972 31.292 50.3282 31.292C46.1882 31.2 44.2102 30.004 44.1182 28.624C44.0262 27.175 46.0502 25.473 49.7992 24.576C54.8592 23.449 57.9872 24.116 62.4262 25.358C59.5512 29.82 56.1242 31.223 50.5122 31.292ZM65.3012 26.163C68.3372 27.06 71.0052 27.888 71.0282 27.888C70.9132 26.784 68.6822 25.588 66.0832 24.645C67.8772 20.827 70.5222 13.835 69.4412 11.489C68.9582 10.431 68.1302 10.822 67.4172 11.489C65.4622 13.283 61.4142 17.331 59.4132 18.205C58.7922 18.481 58.9762 17.975 59.5512 16.02C59.7582 15.445 60.7012 13.375 61.1612 11.972C63.2082 6.015 53.4792 17.124 57.2972 20.206C57.6192 20.436 57.9182 20.574 58.3092 20.643C58.7002 20.712 58.9992 20.712 59.4132 20.666C61.7822 20.298 63.8752 18.55 65.4392 16.986C65.6002 16.802 65.9912 16.342 66.4512 15.767C65.5082 18.596 64.7492 21.126 63.3922 23.748C58.6542 22.299 54.3992 21.471 49.3162 22.299C38.2532 24.438 37.9312 35.984 49.7992 36.145C56.5152 36.076 61.5062 32.235 64.9562 26.807L65.3012 26.163ZM85.9047 9.764C85.9737 9.327 86.0887 7.326 85.6057 6.337C85.4677 6.038 84.9387 5.417 84.7317 6.015C83.4667 9.856 81.5347 13.536 80.2697 17.285C80.1547 17.653 80.0397 18.021 79.9477 18.435C78.2917 18.228 77.1647 18.067 77.1417 18.274C77.1187 18.849 78.1997 19.7 79.8097 20.528C79.8557 20.942 79.9937 21.356 80.1777 21.747C80.5917 22.575 81.3967 23.035 82.0637 22.92C82.1097 22.874 82.1557 22.713 82.1787 22.483C82.2247 22.161 82.2477 21.885 82.3167 21.609C85.4447 22.713 89.2167 23.357 91.3327 22.322C92.4137 21.747 93.5407 20.781 93.9777 19.608C94.5757 17.906 93.7017 15.537 91.9077 14.364C96.8297 13.076 99.5437 8.89 95.1967 5.049C91.1717 1.484 81.6037 2.243 78.0157 5.026C76.1757 6.475 75.3247 8.499 77.1417 10.385C79.1197 12.11 82.5237 10.063 81.9027 9.764C80.3847 9.005 78.0387 7.487 79.2347 6.774C82.9837 4.796 91.8617 4.451 93.4027 9.143C93.8857 10.707 91.7007 11.995 85.1457 13.214C85.1227 13.214 85.0997 13.214 85.0767 13.214C85.5367 11.949 85.7667 11.144 85.9047 9.764ZM82.9607 18.826C83.5127 17.17 84.1797 15.629 84.7317 14.134L84.8927 14.203C85.8587 14.341 89.2397 14.594 90.8497 16.365C94.0007 19.884 88.1587 19.884 82.9607 18.826ZM110.163 12.915C109.933 12.708 109.059 13.237 108.047 13.973C106.161 15.33 104.597 16.963 102.665 17.998C102.665 17.975 102.688 17.952 102.688 17.929C103.309 16.089 104.321 14.64 104.919 13.007C104.988 12.777 105.034 12.57 105.08 12.34C105.149 11.19 103.677 9.672 102.619 10.592C102.228 10.983 101.837 11.673 101.653 12.087C101.469 11.926 101.262 11.834 101.17 11.788C97.5817 10.247 94.6837 16.112 95.1667 18.596C95.4197 19.746 96.3627 20.436 97.4207 20.505C98.2717 20.459 98.9847 20.183 99.6287 19.769C99.9737 20.689 100.756 21.31 101.745 21.195C103.194 20.965 104.39 19.907 105.356 18.964C105.977 18.389 110.83 13.858 110.163 12.915ZM97.6277 17.515C97.6277 17.515 97.6277 17.515 97.6047 17.515C97.5817 17.216 97.6277 16.894 97.6967 16.641C98.0647 15.054 99.2377 12.754 101.009 12.593C101.377 12.593 101.055 13.26 100.595 13.996C99.7667 15.33 98.7777 16.641 97.6277 17.515ZM113.794 7.809C113.84 7.349 113.955 5.417 113.472 4.451C113.357 4.129 112.851 3.554 112.644 4.106C111.402 7.901 109.539 11.466 108.274 15.146C107.814 16.503 107.515 18.228 108.182 19.493C108.596 20.298 109.378 20.758 110.022 20.666C110.091 20.62 110.137 20.436 110.16 20.206C110.367 18.481 110.781 16.963 111.31 15.514C111.241 17.745 112.483 21.816 115.151 23.863C117.865 25.956 122.327 25.381 124.167 22.506C124.512 21.977 124.489 21.517 123.799 21.655C114.323 23.541 113.679 17.607 112.621 14.571C112.575 14.387 112.506 14.318 112.46 14.272C113.012 13.72 115.726 12.202 117.129 11.512C117.566 11.305 117.083 10.408 116.117 10.431C115.22 10.454 113.886 11.006 112.759 11.742C113.242 10.454 113.61 9.189 113.794 7.809ZM129.311 12.892C129.288 12.869 129.058 12.754 128.828 12.938C126.643 14.755 120.088 19.102 119.421 16.595C119.375 16.365 119.352 16.112 119.398 15.882C121.399 16.388 123.124 15.721 124.389 14.157C126.206 11.282 123.63 10.339 121.33 10.684C118.938 11.167 116.96 13.375 116.477 16.319C116.04 19.7 118.294 21.057 121.031 20.367C122.618 19.861 124.113 18.918 125.539 17.814C126.229 17.216 129.748 13.904 129.311 12.892ZM121.721 14.157C121.307 14.456 120.134 15.031 119.559 15.376C120.456 12.777 125.447 11.443 121.721 14.157ZM139.973 12.8C139.053 13.145 133.993 16.526 132.291 17.4C132.59 16.158 134.338 12.915 134.292 11.834C134.223 11.121 133.648 10.615 132.958 10.546C132.475 10.546 132.084 10.753 131.762 10.937C127.668 13.375 129.807 12.409 129.853 11.19C129.876 10.753 128.933 9.948 128.335 10.615C127.852 11.121 127.668 12.294 127.691 12.846C127.76 13.628 128.404 13.996 129.117 14.065C129.554 14.088 130.014 14.042 130.497 13.95C130.152 14.709 129.853 15.445 129.6 16.227C129.094 17.814 128.726 20.045 130.704 20.597C133.441 21.287 141.997 13.076 139.973 12.8ZM131.821 31.292C131.752 31.292 131.706 31.292 131.637 31.292C127.497 31.2 125.519 30.004 125.427 28.624C125.335 27.175 127.359 25.473 131.108 24.576C136.168 23.449 139.296 24.116 143.735 25.358C140.86 29.82 137.433 31.223 131.821 31.292ZM146.61 26.163C149.646 27.06 152.314 27.888 152.337 27.888C152.222 26.784 149.991 25.588 147.392 24.645C149.186 20.827 151.831 13.835 150.75 11.489C150.267 10.431 149.439 10.822 148.726 11.489C146.771 13.283 142.723 17.331 140.722 18.205C140.101 18.481 140.285 17.975 140.86 16.02C141.067 15.445 142.01 13.375 142.47 11.972C144.517 6.015 134.788 17.124 138.606 20.206C138.928 20.436 139.227 20.574 139.618 20.643C140.009 20.712 140.308 20.712 140.722 20.666C143.091 20.298 145.184 18.55 146.748 16.986C146.909 16.802 147.3 16.342 147.76 15.767C146.817 18.596 146.058 21.126 144.701 23.748C139.963 22.299 135.708 21.471 130.625 22.299C119.562 24.438 119.24 35.984 131.108 36.145C137.824 36.076 142.815 32.235 146.265 26.807L146.61 26.163Z" fill="#E43C6F"/>
</svg>
