<svg width="30" height="28" viewBox="0 0 30 28" fill="none" xmlns="http://www.w3.org/2000/svg">
<path d="M27.5062 16.6498L29.9684 5.81648C30.1461 5.03429 29.5516 4.28945 28.7495 4.28945H8.29208L7.81469 1.95559C7.69573 1.37388 7.18385 0.956116 6.59005 0.956116H1.25C0.559635 0.956116 0 1.51575 0 2.20612V3.03945C0 3.72981 0.559635 4.28945 1.25 4.28945H4.88974L8.54849 22.1767C7.67318 22.6801 7.08333 23.6239 7.08333 24.7061C7.08333 26.3169 8.38917 27.6228 10 27.6228C11.6108 27.6228 12.9167 26.3169 12.9167 24.7061C12.9167 23.8898 12.5809 23.1522 12.0404 22.6228H22.9595C22.4191 23.1522 22.0833 23.8898 22.0833 24.7061C22.0833 26.3169 23.3892 27.6228 25 27.6228C26.6108 27.6228 27.9167 26.3169 27.9167 24.7061C27.9167 23.5513 27.2454 22.5534 26.2719 22.0809L26.5593 20.8165C26.737 20.0343 26.1425 19.2894 25.3404 19.2894H11.3603L11.0194 17.6228H26.2873C26.871 17.6228 27.3769 17.2189 27.5062 16.6498Z" fill="#37618B"/>
</svg>
